#N canvas 80 60 1200 760 10;
#X obj 30 20 loadbang;
#X msg 30 50 120;
#X obj 30 80 s bpm;
#X obj 150 20 tgl 20 0 empty empty START 0 -10 0 12 -262144 -1 -1 0 1;
#X obj 150 50 s start;
#X obj 30 130 r bpm;
#X obj 30 160 expr 60000/($f1*4);
#X obj 30 190 s step_ms;
#X obj 150 130 r start;
#X obj 230 130 r step_ms;
#X obj 150 160 metro 125;
#X obj 150 190 f 0;
#X obj 200 190 + 1;
#X obj 250 190 mod 1664;
#X obj 250 220 s step;
#X obj 350 130 r step;
#X obj 350 160 div 16;
#X obj 350 190 s bar;
#X obj 450 130 r step;
#X obj 450 160 mod 16;
#X obj 450 190 s s16;
#X obj 550 130 r bar;
#X obj 550 160 div 4;
#X obj 550 190 s grp;
#X obj 650 130 r grp;
#X obj 650 160 expr ($f1<2)?0:(($f1<6)?1:(($f1<8)?2:(($f1<10)?3:(($f1<14)?1:(($f1<16)?2:(($f1<18)?3:(($f1<20)?4:(($f1<22)?5:(($f1<25)?3:0)))))))));
#X obj 650 190 s pat;
#X obj 30 610 catch~ mix;
#X obj 30 640 *~;
#X obj 30 670 clip~ -0.95 0.95;
#X obj 30 700 dac~;
#X obj 220 610 floatatom 5 0 0 0 - - -;
#X obj 220 640 pack f 20;
#X obj 220 670 line~;
#X msg 220 580 0.8;
#N canvas 160 190 560 520 DRUMS 0;
#X obj 20 20 r s16;
#X obj 90 20 r pat;
#X obj 20 50 pack f f;
#X obj 20 80 expr ((($f2==1)||($f2==2)||($f2==5)) && (($f1==0)||($f1==6)||($f1==12))) || (($f2==3) && (($f1==0)||($f1==8)));
#X obj 20 110 sel 1;
#X obj 20 140 t b b;
#X msg 20 170 120 \, 45 80;
#X obj 20 200 vline~;
#X obj 20 230 osc~;
#X msg 140 170 1 2 \, 0 140 2;
#X obj 140 200 vline~;
#X obj 20 260 *~;
#X obj 20 290 lop~ 800;
#X obj 20 320 *~ 0.9;
#X obj 20 350 throw~ mix;
#X obj 270 20 r s16;
#X obj 340 20 r pat;
#X obj 270 50 pack f f;
#X obj 270 80 expr ($f2!=0) && ($f1==8);
#X obj 270 110 sel 1;
#X obj 270 140 t b b;
#X obj 270 170 noise~;
#X msg 360 170 1 2 \, 0 120 2;
#X obj 360 200 vline~;
#X obj 270 230 *~;
#X obj 270 260 bp~ 1800 6;
#X obj 270 290 *~ 0.55;
#X obj 420 170 osc~ 180;
#X msg 500 170 1 1 \, 0 80 1;
#X obj 500 200 vline~;
#X obj 420 230 *~;
#X obj 340 320 +~;
#X obj 340 350 throw~ mix;
#X obj 20 390 r s16;
#X obj 90 390 r pat;
#X obj 20 420 pack f f;
#X obj 20 450 expr ($f2!=0) && (($f1%2)==0);
#X obj 20 480 sel 1;
#X obj 20 510 noise~;
#X obj 20 540 hip~ 6000;
#X msg 140 510 1 1 \, 0 35 1;
#X obj 140 540 vline~;
#X obj 20 570 *~;
#X obj 20 600 *~ 0.18;
#X obj 20 630 throw~ mix;
#X connect 0 0 2 0;
#X connect 1 0 2 1;
#X connect 2 0 3 0;
#X connect 3 0 4 0;
#X connect 4 0 5 0;
#X connect 5 0 6 0;
#X connect 5 1 9 0;
#X connect 6 0 7 0;
#X connect 7 0 8 0;
#X connect 9 0 10 0;
#X connect 8 0 11 0;
#X connect 10 0 11 1;
#X connect 11 0 12 0;
#X connect 12 0 13 0;
#X connect 13 0 14 0;
#X connect 15 0 17 0;
#X connect 16 0 17 1;
#X connect 17 0 18 0;
#X connect 18 0 19 0;
#X connect 19 0 20 0;
#X connect 20 0 22 0;
#X connect 20 1 28 0;
#X connect 22 0 23 0;
#X connect 21 0 24 0;
#X connect 23 0 24 1;
#X connect 24 0 25 0;
#X connect 25 0 26 0;
#X connect 28 0 29 0;
#X connect 29 0 30 1;
#X connect 27 0 30 0;
#X connect 26 0 31 0;
#X connect 30 0 31 1;
#X connect 31 0 32 0;
#X connect 33 0 35 0;
#X connect 34 0 35 1;
#X connect 35 0 36 0;
#X connect 36 0 37 0;
#X connect 37 0 40 0;
#X connect 40 0 41 0;
#X connect 38 0 39 0;
#X connect 39 0 42 0;
#X connect 41 0 42 1;
#X connect 42 0 43 0;
#X connect 43 0 44 0;
#X restore 900 90 pd DRUMS;
#N canvas 170 210 520 390 BASS 0;
#X obj 20 20 r s16;
#X obj 90 20 r pat;
#X obj 20 50 pack f f;
#X obj 20 80 expr ($f2==3)?(($f1==0)?26:(($f1==8)?29:-1)):(($f2==0)?-1:(($f1==0)?26:(((($f2==1)||($f2==2)||($f2==5))&&($f1==12))?25:-1)));
#X obj 20 110 moses 0;
#X obj 80 140 t f b;
#X obj 80 170 mtof;
#X obj 80 200 osc~;
#X obj 80 230 expr~ tanh($v1*1.8);
#X msg 170 170 1 5 \, 0 220 5;
#X obj 170 200 vline~;
#X obj 80 260 *~;
#X obj 80 290 lop~ 180;
#X obj 80 320 *~ 0.65;
#X obj 80 350 throw~ mix;
#X connect 0 0 2 0;
#X connect 1 0 2 1;
#X connect 2 0 3 0;
#X connect 3 0 4 0;
#X connect 4 1 5 0;
#X connect 5 0 6 0;
#X connect 5 1 9 0;
#X connect 6 0 7 0;
#X connect 7 0 8 0;
#X connect 9 0 10 0;
#X connect 8 0 11 0;
#X connect 10 0 11 1;
#X connect 11 0 12 0;
#X connect 12 0 13 0;
#X connect 13 0 14 0;
#X restore 900 130 pd BASS;
#N canvas 180 230 560 410 GTR 0;
#X obj 20 20 r s16;
#X obj 90 20 r pat;
#X obj 20 50 pack f f;
#X obj 20 80 expr ($f2==1)?((($f1==0)||($f1==3))?38:(($f1==6)?41:(($f1==9)?39:(($f1==12)?38:(($f1==14)?43:-1))))):(($f2==0)?(($f1==0)?38:(($f1==6)?41:(($f1==12)?39:-1))):(($f2==2)?((($f1==0)||($f1==8))?38:(($f1==12)?41:-1)):(($f2==3)?((($f1==0)||($f1==10))?38:-1):(($f2==5)?((($f1%2)==0)?38:-1):-1))));
#X obj 20 110 moses 0;
#X obj 80 140 t f b;
#X obj 80 170 mtof;
#X obj 80 200 phasor~;
#X obj 80 230 *~ 2;
#X obj 80 260 -~ 1;
#X obj 80 290 expr~ tanh($v1*3);
#X obj 260 200 hip~ 60;
#X obj 260 230 lop~ 2600;
#X msg 170 170 1 5 \, 0 180 5;
#X obj 170 200 vline~;
#X obj 260 260 *~;
#X obj 260 290 *~ 0.55;
#X obj 260 320 throw~ mix;
#X connect 0 0 2 0;
#X connect 1 0 2 1;
#X connect 2 0 3 0;
#X connect 3 0 4 0;
#X connect 4 1 5 0;
#X connect 5 0 6 0;
#X connect 5 1 13 0;
#X connect 6 0 7 0;
#X connect 7 0 8 0;
#X connect 8 0 9 0;
#X connect 9 0 10 0;
#X connect 10 0 11 0;
#X connect 11 0 12 0;
#X connect 12 0 15 0;
#X connect 13 0 14 0;
#X connect 14 0 15 1;
#X connect 15 0 16 0;
#X connect 16 0 17 0;
#X restore 900 170 pd GTR;
#N canvas 190 250 640 470 PIANO 0;
#X obj 20 20 r bar;
#X obj 20 50 mod 4;
#X obj 20 80 sel 0 1 2 3;
#X msg 20 110 62 65 69;
#X msg 120 110 64 67 70;
#X msg 220 110 69 73 79;
#X msg 320 110 62 65 69;
#X obj 20 140 unpack f f f;
#X obj 20 170 f;
#X obj 70 170 f;
#X obj 120 170 f;
#X obj 20 220 r s16;
#X obj 90 220 r pat;
#X obj 20 250 pack f f;
#X obj 20 280 expr (($f2==3)||($f2==4)) && ($f1==0);
#X obj 20 310 sel 1;
#X obj 20 340 t b b b b;
#X msg 230 340 1 2 \, 0 180 2;
#X obj 230 370 vline~;
#X obj 20 370 mtof;
#X obj 20 400 osc~;
#X obj 20 430 *~;
#X obj 90 370 mtof;
#X obj 90 400 osc~;
#X obj 90 430 *~;
#X obj 160 370 mtof;
#X obj 160 400 osc~;
#X obj 160 430 *~;
#X obj 20 460 +~;
#X obj 20 490 +~;
#X obj 20 520 lop~ 4200;
#X obj 20 550 *~ 0.20;
#X obj 20 580 throw~ mix;
#X connect 0 0 1 0;
#X connect 1 0 2 0;
#X connect 2 0 3 0;
#X connect 2 1 4 0;
#X connect 2 2 5 0;
#X connect 2 3 6 0;
#X connect 3 0 7 0;
#X connect 4 0 7 0;
#X connect 5 0 7 0;
#X connect 6 0 7 0;
#X connect 7 0 8 1;
#X connect 7 1 9 1;
#X connect 7 2 10 1;
#X connect 11 0 13 0;
#X connect 12 0 13 1;
#X connect 13 0 14 0;
#X connect 14 0 15 0;
#X connect 15 0 16 0;
#X connect 16 0 8 0;
#X connect 16 1 9 0;
#X connect 16 2 10 0;
#X connect 16 3 17 0;
#X connect 17 0 18 0;
#X connect 8 0 19 0;
#X connect 19 0 20 0;
#X connect 20 0 21 0;
#X connect 18 0 21 1;
#X connect 9 0 22 0;
#X connect 22 0 23 0;
#X connect 23 0 24 0;
#X connect 18 0 24 1;
#X connect 10 0 25 0;
#X connect 25 0 26 0;
#X connect 26 0 27 0;
#X connect 18 0 27 1;
#X connect 21 0 28 0;
#X connect 24 0 28 1;
#X connect 28 0 29 0;
#X connect 27 0 29 1;
#X connect 29 0 30 0;
#X connect 30 0 31 0;
#X connect 31 0 32 0;
#X restore 900 210 pd PIANO;
#N canvas 200 270 620 450 PAD 0;
#X obj 20 20 r pat;
#X obj 20 50 expr (($f1==0)||($f1==2)||($f1==3)||($f1==4))?0.22:(($f1==1)?0.10:(($f1==5)?0.10:0.08));
#X obj 20 80 pack f 200;
#X obj 20 110 line~;
#X obj 20 150 noise~;
#X obj 20 180 bp~ 900 10;
#X obj 150 180 bp~ 1800 12;
#X obj 280 180 bp~ 2700 14;
#X obj 20 210 +~;
#X obj 20 240 +~;
#X obj 420 150 osc~ 73.416;
#X obj 420 180 *~ 0.18;
#X obj 20 270 +~;
#X obj 20 300 *~;
#X obj 20 330 delwrite~ padDel 800;
#X obj 180 330 delread~ padDel 420;
#X obj 180 360 *~ 0.25;
#X obj 20 360 +~;
#X obj 20 390 *~ 0.35;
#X obj 20 420 throw~ mix;
#X connect 0 0 1 0;
#X connect 1 0 2 0;
#X connect 2 0 3 0;
#X connect 4 0 5 0;
#X connect 4 0 6 0;
#X connect 4 0 7 0;
#X connect 5 0 8 0;
#X connect 6 0 8 1;
#X connect 8 0 9 0;
#X connect 7 0 9 1;
#X connect 10 0 11 0;
#X connect 9 0 12 0;
#X connect 11 0 12 1;
#X connect 12 0 13 0;
#X connect 3 0 13 1;
#X connect 13 0 14 0;
#X connect 13 0 17 0;
#X connect 15 0 16 0;
#X connect 16 0 17 1;
#X connect 17 0 18 0;
#X connect 18 0 19 0;
#X restore 900 250 pd PAD;
#N canvas 210 290 560 360 PERC 0;
#X obj 20 20 r s16;
#X obj 90 20 r pat;
#X obj 20 50 pack f f;
#X obj 20 80 expr (($f2!=0) && (($f1==2)||($f1==6)||($f1==10)||($f1==14))) || (($f2==3) && (($f1==4)||($f1==12)));
#X obj 20 110 sel 1;
#X obj 20 140 noise~;
#X msg 120 140 1 1 \, 0 80 1;
#X obj 120 170 vline~;
#X obj 20 170 *~;
#X obj 20 200 bp~ 900 20;
#X obj 160 200 bp~ 1400 18;
#X obj 300 200 bp~ 2200 16;
#X obj 20 230 +~;
#X obj 20 260 +~;
#X obj 20 290 *~ 0.22;
#X obj 20 320 throw~ mix;
#X connect 0 0 2 0;
#X connect 1 0 2 1;
#X connect 2 0 3 0;
#X connect 3 0 4 0;
#X connect 4 0 6 0;
#X connect 6 0 7 0;
#X connect 5 0 8 0;
#X connect 7 0 8 1;
#X connect 8 0 9 0;
#X connect 8 0 10 0;
#X connect 8 0 11 0;
#X connect 9 0 12 0;
#X connect 10 0 12 1;
#X connect 12 0 13 0;
#X connect 11 0 13 1;
#X connect 13 0 14 0;
#X connect 14 0 15 0;
#X restore 900 290 pd PERC;
#N canvas 220 310 640 420 REED 0;
#X obj 20 20 r s16;
#X obj 90 20 r pat;
#X obj 20 50 pack f f;
#X obj 20 80 expr ($f2==3) && (($f1==0)||($f1==4)||($f1==8)||($f1==12));
#X obj 20 110 sel 1;
#X obj 220 20 r bar;
#X obj 220 50 mod 4;
#X obj 220 80 sel 0 1 2 3;
#X msg 220 110 69;
#X msg 270 110 72;
#X msg 320 110 74;
#X msg 370 110 77;
#X obj 220 140 f 69;
#X obj 20 140 t b b;
#X msg 110 170 1 5 \, 0 260 5;
#X obj 110 200 vline~;
#X obj 220 170 mtof;
#X obj 220 200 phasor~;
#X obj 220 230 *~ 2;
#X obj 220 260 -~ 1;
#X obj 220 290 bp~ 800 6;
#X obj 340 290 bp~ 1150 7;
#X obj 460 290 bp~ 2900 8;
#X obj 220 320 +~;
#X obj 220 350 +~;
#X obj 220 380 *~;
#X obj 220 410 *~ 0.16;
#X obj 220 440 throw~ mix;
#X connect 0 0 2 0;
#X connect 1 0 2 1;
#X connect 2 0 3 0;
#X connect 3 0 4 0;
#X connect 4 0 13 0;
#X connect 5 0 6 0;
#X connect 6 0 7 0;
#X connect 7 0 8 0;
#X connect 7 1 9 0;
#X connect 7 2 10 0;
#X connect 7 3 11 0;
#X connect 8 0 12 1;
#X connect 9 0 12 1;
#X connect 10 0 12 1;
#X connect 11 0 12 1;
#X connect 13 0 12 0;
#X connect 13 1 14 0;
#X connect 14 0 15 0;
#X connect 12 0 16 0;
#X connect 16 0 17 0;
#X connect 17 0 18 0;
#X connect 18 0 19 0;
#X connect 19 0 20 0;
#X connect 19 0 21 0;
#X connect 19 0 22 0;
#X connect 20 0 23 0;
#X connect 21 0 23 1;
#X connect 23 0 24 0;
#X connect 22 0 24 1;
#X connect 24 0 25 0;
#X connect 15 0 25 1;
#X connect 25 0 26 0;
#X connect 26 0 27 0;
#X restore 900 330 pd REED;
#N canvas 230 330 760 540 VOCODE 0;
#X obj 20 20 r s16;
#X obj 90 20 r pat;
#X obj 20 50 pack f f;
#X obj 20 80 expr ($f2==3) && (($f1==0)||($f1==4)||($f1==8)||($f1==12));
#X obj 20 110 sel 1;
#X obj 240 20 r bar;
#X obj 240 50 mod 4;
#X obj 240 80 sel 0 1 2 3;
#X msg 240 110 69;
#X msg 290 110 72;
#X msg 340 110 74;
#X msg 390 110 77;
#X obj 240 140 f 69;
#X obj 20 140 t b b;
#X msg 20 170 1 5 \, 0 320 5;
#X obj 20 200 vline~;
#X obj 240 170 mtof;
#X obj 240 200 osc~;
#X obj 360 170 + 3;
#X obj 360 200 mtof;
#X obj 360 230 osc~;
#X obj 240 230 +~;
#X obj 240 260 *~;
#X obj 240 290 abs~;
#X obj 240 320 lop~ 20;
#X obj 240 360 phasor~;
#X obj 240 390 *~ 2;
#X obj 240 420 -~ 1;
#X obj 360 360 * 1.01;
#X obj 360 390 phasor~;
#X obj 360 420 *~ 2;
#X obj 360 450 -~ 1;
#X obj 240 450 +~;
#X obj 520 360 noise~;
#X obj 520 390 *~ 0.10;
#X obj 240 480 +~;
#X obj 240 510 bp~ 600 6;
#X obj 360 510 bp~ 1200 7;
#X obj 480 510 bp~ 2500 8;
#X obj 240 540 +~;
#X obj 240 570 +~;
#X obj 240 600 *~;
#X obj 240 630 *~ 0.18;
#X obj 240 660 throw~ mix;
#X connect 0 0 2 0;
#X connect 1 0 2 1;
#X connect 2 0 3 0;
#X connect 3 0 4 0;
#X connect 4 0 13 0;
#X connect 5 0 6 0;
#X connect 6 0 7 0;
#X connect 7 0 8 0;
#X connect 7 1 9 0;
#X connect 7 2 10 0;
#X connect 7 3 11 0;
#X connect 8 0 12 1;
#X connect 9 0 12 1;
#X connect 10 0 12 1;
#X connect 11 0 12 1;
#X connect 13 0 12 0;
#X connect 13 1 14 0;
#X connect 14 0 15 0;
#X connect 12 0 16 0;
#X connect 16 0 17 0;
#X connect 12 0 18 0;
#X connect 18 0 19 0;
#X connect 19 0 20 0;
#X connect 17 0 21 0;
#X connect 20 0 21 1;
#X connect 21 0 22 0;
#X connect 15 0 22 1;
#X connect 22 0 23 0;
#X connect 23 0 24 0;
#X connect 16 0 25 0;
#X connect 25 0 26 0;
#X connect 26 0 27 0;
#X connect 16 0 28 0;
#X connect 28 0 29 0;
#X connect 29 0 30 0;
#X connect 30 0 31 0;
#X connect 27 0 32 0;
#X connect 31 0 32 1;
#X connect 33 0 34 0;
#X connect 32 0 35 0;
#X connect 34 0 35 1;
#X connect 35 0 36 0;
#X connect 35 0 37 0;
#X connect 35 0 38 0;
#X connect 36 0 39 0;
#X connect 37 0 39 1;
#X connect 39 0 40 0;
#X connect 38 0 40 1;
#X connect 40 0 41 0;
#X connect 24 0 41 1;
#X connect 41 0 42 0;
#X connect 42 0 43 0;
#X restore 900 370 pd VOCODE;
#X connect 0 0 1 0;
#X connect 1 0 2 0;
#X connect 0 0 34 0;
#X connect 34 0 31 0;
#X connect 31 0 32 0;
#X connect 32 0 33 0;
#X connect 3 0 4 0;
#X connect 5 0 6 0;
#X connect 6 0 7 0;
#X connect 8 0 10 0;
#X connect 9 0 10 1;
#X connect 10 0 11 0;
#X connect 11 0 12 0;
#X connect 12 0 13 0;
#X connect 13 0 11 1;
#X connect 13 0 14 0;
#X connect 15 0 16 0;
#X connect 16 0 17 0;
#X connect 18 0 19 0;
#X connect 19 0 20 0;
#X connect 21 0 22 0;
#X connect 22 0 23 0;
#X connect 24 0 25 0;
#X connect 25 0 26 0;
#X connect 27 0 28 0;
#X connect 33 0 28 1;
#X connect 28 0 29 0;
#X connect 29 0 30 0;
#X connect 29 0 30 1;
